# xmcd
#
# Track frame offsets:
#	150
#	15224
#	28343
#	44112
#	58252
#	73340
#	86084
#	99641
#	112716
#	124452
#	135544
#	149915
#	164025
#	178619
#	193932
#	206387
#	219998
#	233712
#	247043
#	261056
#
# Disc length: 3647 seconds
#
# Revision: 0
# Processed by: cddbd v1.5.2PL0 Copyright (c) Steve Scherf et al.
# Submitted via: EasyCDDAExtractor 16.0.6.1
#
DISCID=3a0e3d14
DTITLE=Διονυσίου Στράτος - Τραγούδια 45 στροφές-Διονυσίου Στράτος 1
DYEAR=1996
DGENRE=Λαϊκή
TTITLE0=Διονυσίου Στράτος - Άφησέ με ήσυχο [1966, Στέλ. Μακρυδάκη]
TTITLE1=Διονυσίου Στράτος - Γιατί δεν με προσέχεις [1963, Νίκ. Καρανικόλα]
TTITLE2=Διονυσίου Στράτος - Εμένα να μη με κλαις [1966, Στρ. Ατταλίδη]
TTITLE3=Διονυσίου Στράτος-Γεωργούτη Βούλα - Μεγάλες αγάπες [1967, Στ. Κάξου-Χα
TTITLE3=ρ. Βασιλειάδη]
TTITLE4=Διονυσίου Στράτος - Είμαι άνδρας μερακλής [1968, Κ. Παπαδόπουλου-Γ. Βρ
TTITLE4=ούβα]
TTITLE5=Διονυσίου Στράτος - Τι παράπονο μού κρύβεις [1963, Νίκ. Δαλέζιου]
TTITLE6=Διονυσίου Στράτος-Γεωργούτη Βούλα - Με αχαριστία με πληγώνεις [1968, Σ
TTITLE6=Διονυσίου-Δέσπ. Χατζηγιακουμή]
TTITLE7=Διονυσίου Στράτος - Διώξε με από κοντά σου [1964, Γιάν. Καραμπεσίνη]
TTITLE8=Διονυσίου Στράτος - Στο εξής εν τάξει νά 'σαι [1972, Γιάν. Καραμπεσίνη
TTITLE8=]
TTITLE9=Διονυσίου Στράτος - Άστραψε και σκοτείνιασε [1972, Γιώρ. Μαλλίδη-Ηλ. Π
TTITLE9=απασιδέρη]
TTITLE10=Διονυσίου Στράτος - Είμαι δημοκράτης στην αγάπη [1965, Νίκ. Δαλέζιου]
TTITLE11=Διονυσίου Στράτος-Γεωργούτη Βούλα - Είναι μακρυά το όνειρο [1968, Στρ
TTITLE11=Διονυσίου]
TTITLE12=Διονυσίου Στράτος - Πες μου φίλε τον καϋμό σου [1972, Βασ. Τσιτσάνη]
TTITLE13=Διονυσίου Στράτος-Γκίκα Βούλα - Καπετάνιε σώσε με [1963, Γιάν. Παπαϊω
TTITLE13=άννου]
TTITLE14=Διονυσίου Στράτος-Μπέλλα Άννα - Εγώ δεν γνώρισα χαρά [1964, Π. Πετσά-
TTITLE14=Ηρ. Παπασιδέρη]
TTITLE15=Διονυσίου Στράτος-Λαμπράκη Χαρούλα - Φτάνει πια να με παιδεύεις [1968
TTITLE15=, Στρ. Διονυσίου-Ηρ. Παπασιδέρη]
TTITLE16=Διονυσίου Στράτος - Πριν την ώρα μου μ' έχεις γεράσει [1972, Γ. Μαλλί
TTITLE16=δη-Ηρ. Παπασιδέρη]
TTITLE17=Διονυσίου Στράτος-Λαμπράκη Χαρούλα - Το πεπρωμένο [1968, Στρ. Διονυσί
TTITLE17=ου-Ηρ. Παπασιδέρη]
TTITLE18=Διονυσίου Στράτος-Γκίκα Βούλα - Εσύ δεν έχεις μπέσα [1964, Δ. Τζάρα-Ά
TTITLE18=λκη Νεράτζη-Κ. Καλαμπούκα]
TTITLE19=Διονυσίου Στράτος-Λαμπράκη Χαρούλα - Της γυναίκας ο τροχός [1966, Νίκ
TTITLE19=Δαλέζιου]
EXTD=
EXTT0=
EXTT1=
EXTT2=
EXTT3=
EXTT4=
EXTT5=
EXTT6=
EXTT7=
EXTT8=
EXTT9=
EXTT10=
EXTT11=
EXTT12=
EXTT13=
EXTT14=
EXTT15=
EXTT16=
EXTT17=
EXTT18=
EXTT19=
PLAYORDER=
